<?xml version="1.0" encoding="UTF-8"?>
<svg width="502.64" height="139.82" version="1.1" viewBox="0 0 502.64 139.82" xml:space="preserve" xmlns="http://www.w3.org/2000/svg" xmlns:cc="http://creativecommons.org/ns#" xmlns:dc="http://purl.org/dc/elements/1.1/" xmlns:rdf="http://www.w3.org/1999/02/22-rdf-syntax-ns#"><metadata><rdf:RDF><cc:Work rdf:about=""><dc:format>image/svg+xml</dc:format><dc:type rdf:resource="http://purl.org/dc/dcmitype/StillImage"/><dc:title/></cc:Work></rdf:RDF></metadata><defs><clipPath id="clipPath26"><path d="M 0,841.89 H 595.276 V 0 H 0 Z"/></clipPath></defs><g transform="matrix(1.3333 0 0 -1.3333 -5.6356 1116.8)"><g transform="translate(-92.78 367.68)"><g clip-path="url(#clipPath26)"><g transform="translate(286.88 425.82)"><path d="m0 0v-27.754h-11.822v-27.187h-26.481v59.968c0 6.749 1.157 12.507 3.47 17.275 2.926 6.089 7.374 11.056 13.345 14.904 5.97 3.846 12.189 5.77 18.656 5.77l2.832-0.071v-27.754c-0.613 0.047-1.061 0.071-1.344 0.071-3.353 0-5.937-1.109-7.754-3.327-1.816-2.22-2.724-5.381-2.724-9.488v-2.407z" fill="#621701"/></g><g transform="translate(337.72 397.36)"><path d="m0 0v-27.399c-2.172-0.378-4.154-0.567-5.947-0.567-10.621 0-19.471 3.492-26.551 10.479-7.08 6.984-10.621 15.741-10.621 26.266 0 10.242 3.576 18.928 10.727 26.055 7.151 7.126 15.847 10.691 26.09 10.691 11.422 0 20.426-3.34 27.011-10.018 6.584-6.68 9.877-15.801 9.877-27.364v-34.622h-26.481v32.709c0 3.729-0.909 6.703-2.725 8.921-1.817 2.219-4.26 3.328-7.327 3.328-2.786 0-5.194-1.015-7.223-3.044-2.029-2.03-3.044-4.437-3.044-7.222 0-2.927 0.921-5.334 2.761-7.222 1.842-1.887 4.178-2.832 7.01-2.832 2.312 0 4.461 0.613 6.443 1.841" fill="#621701"/></g><g transform="translate(473.99 370.88)"><path d="m0 0h-26.479v38.091c0 2.927-0.307 4.956-0.92 6.089-0.615 1.133-1.724 1.699-3.328 1.699-2.974 0-4.461-2.619-4.461-7.858v-38.021h-26.479v38.091c0 2.927-0.318 4.956-0.956 6.089-0.637 1.133-1.759 1.699-3.363 1.699-2.927 0-4.389-2.619-4.389-7.858v-38.021h-26.48v43.472c0 7.929 2.667 14.667 8.001 20.214 5.333 5.545 11.799 8.318 19.399 8.318 7.835 0 14.868-3.304 21.099-9.912 6.938 6.608 13.877 9.912 20.815 9.912 8.826 0 15.906-3.21 21.24-9.629 4.2-5.003 6.301-12.295 6.301-21.877z" fill="#621701"/></g><g transform="translate(192.58 441.54)"><path d="m0 0v-70.659h-28.745v96.643h36.887c11.233 0 19.941-2.786 26.126-8.355 6.891-6.23 10.336-14.136 10.336-23.718 0-9.77-4.272-18.008-12.814-24.709l16.567-39.861h-30.161l-13.948 31.152v24.851h2.266c6.041 0 9.062 2.595 9.062 7.788 0 4.578-3.493 6.868-10.478 6.868z" fill="#621701"/></g><g transform="translate(150.84 424.84)"><path d="m0 0v43.583c0 0.828-0.671 1.5-1.5 1.5s-1.5-0.672-1.5-1.5v-44.228c0-1.298 1.056-2.355 2.354-2.355h11.634v3z" fill="#621701"/></g><g transform="translate(149.51 415.81)"><path d="m0 0c-0.835-4e-3 -1.572-0.509-1.877-1.286-0.305-0.778-0.107-1.65 0.505-2.22l3.483-3.246c0.046-0.673-0.184-1.331-0.648-1.833-0.422-0.458-0.989-0.733-1.602-0.784l-4.195 3.701c-0.796 0.703-1.893 0.865-2.862 0.431-0.968-0.438-1.569-1.369-1.569-2.431v-22.206c1.106-0.347 2.119-0.901 3-1.613 2.079-1.679 3.413-4.244 3.413-7.118 0-5.046-4.106-9.152-9.151-9.152-5.046 0-9.152 4.106-9.152 9.152 0 2.898 1.359 5.481 3.468 7.16 0.884 0.702 1.896 1.249 3 1.588v26.09c0 1.316-1.07 2.386-2.386 2.386h-15.012c-0.332-1.102-0.868-2.115-1.562-3-1.677-2.14-4.277-3.522-7.2-3.522-5.046 0-9.152 4.105-9.152 9.151s4.106 9.151 9.152 9.151c2.923 0 5.524-1.382 7.201-3.523 0.693-0.885 1.229-1.897 1.561-2.999h21.19c1.279 0 2.318 1.039 2.318 2.317v32.21c0 0.828-0.671 1.5-1.5 1.5-0.828 0-1.5-0.672-1.5-1.5v-31.528h-18.511c-2.034 3.873-6.09 6.523-10.759 6.523-6.7 0-12.152-5.451-12.152-12.151s5.452-12.151 12.152-12.151c4.669 0 8.724 2.65 10.759 6.522h12.401v-23.492c-3.843-2.043-6.468-6.085-6.468-10.732 0-6.701 5.451-12.152 12.152-12.152 6.7 0 12.151 5.451 12.151 12.152 0 4.625-2.599 8.653-6.413 10.706v19.493l4.023-3.55c0.276-0.237 0.627-0.382 0.979-0.407 1.674-0.128 3.291 0.508 4.431 1.744 1.141 1.236 1.644 2.897 1.381 4.557l-0.034 0.221c-0.058 0.367-0.24 0.709-0.511 0.96l-2.027 1.889 9.848 0.032v3z" fill="#621701"/></g></g></g></g></svg>
